<?xml version="1.0" encoding="UTF-8"?> <svg xmlns="http://www.w3.org/2000/svg" width="136" height="42" viewBox="0 0 136 42" fill="none"><path d="M124.329 1.00013H11.6769C11.2663 1.00013 10.8606 1.00013 10.4511 1.00213C10.1082 1.00413 9.76815 1.00994 9.42203 1.01483C8.6701 1.02273 7.91993 1.08181 7.17806 1.19154C6.43722 1.30366 5.7196 1.51505 5.04945 1.81854C4.38012 2.1246 3.76854 2.5223 3.23688 2.9972C2.70244 3.47077 2.25694 4.01815 1.91751 4.61829C1.57715 5.21724 1.34114 5.85907 1.21763 6.52161C1.09296 7.18331 1.02587 7.85265 1.01696 8.52361C1.00657 8.83021 1.00548 9.13783 1 9.44447V32.5587C1.00548 32.8692 1.00657 33.17 1.01696 33.4806C1.02587 34.1516 1.09296 34.8209 1.21763 35.4825C1.3408 36.1455 1.57682 36.7877 1.91751 37.3868C2.25678 37.985 2.70235 38.5302 3.23688 39.0011C3.76652 39.4781 4.3785 39.8761 5.04945 40.1798C5.71959 40.4841 6.43714 40.6968 7.17806 40.8106C7.92006 40.9195 8.67014 40.9786 9.42203 40.9874C9.76815 40.9942 10.1082 40.9981 10.4511 40.9981C10.8606 41.0001 11.2663 41.0001 11.6769 41.0001H124.329C124.732 41.0001 125.14 41.0001 125.543 40.9981C125.884 40.9981 126.234 40.9942 126.575 40.9874C127.326 40.9791 128.074 40.92 128.815 40.8106C129.558 40.696 130.278 40.4834 130.952 40.1798C131.622 39.8759 132.233 39.478 132.763 39.0011C133.296 38.5284 133.742 37.9836 134.086 37.3868C134.424 36.7872 134.658 36.1451 134.779 35.4825C134.904 34.8208 134.973 34.1516 134.987 33.4806C134.991 33.17 134.991 32.8692 134.991 32.5587C135 32.1954 135 31.8341 135 31.4649V10.5363C135 10.17 135 9.80677 134.991 9.44447C134.991 9.13783 134.991 8.83021 134.987 8.52357C134.973 7.85255 134.904 7.18337 134.779 6.52157C134.657 5.85941 134.424 5.21763 134.086 4.61825C133.395 3.41533 132.298 2.43616 130.952 1.81845C130.278 1.5157 129.558 1.30437 128.815 1.19145C128.075 1.08123 127.326 1.02214 126.575 1.01469C126.234 1.00981 125.884 1.00395 125.543 1.002C125.14 1 124.732 1 124.329 1V1.00013Z" stroke="white" stroke-width="1.5"></path><path d="M34.4359 22.2594C34.461 20.317 35.4793 18.5228 37.1342 17.5054C36.0854 16.0077 34.3919 15.0921 32.5644 15.0349C30.6417 14.8331 28.7777 16.1854 27.798 16.1854C26.7992 16.1854 25.2907 15.055 23.6663 15.0884C21.529 15.1574 19.5848 16.3432 18.5449 18.2117C16.3306 22.0456 17.9823 27.6801 20.1035 30.7791C21.1648 32.2966 22.4051 33.9916 24.028 33.9315C25.6162 33.8657 26.2093 32.9188 28.1264 32.9188C30.0256 32.9188 30.5821 33.9315 32.238 33.8933C33.9421 33.8656 35.0158 32.3691 36.0399 30.8372C36.8024 29.7559 37.3891 28.5609 37.7784 27.2964C35.7544 26.4403 34.4383 24.457 34.4359 22.2594Z" fill="#EFF2F5"></path><path d="M31.309 12.9967C32.2382 11.8812 32.696 10.4475 32.5851 9C31.1656 9.1491 29.8543 9.82756 28.9125 10.9002C27.9826 11.9585 27.5115 13.3431 27.603 14.7489C29.0416 14.7637 30.4076 14.1179 31.309 12.9967Z" fill="#EFF2F5"></path><path fill-rule="evenodd" clip-rule="evenodd" d="M49.112 27.7083H53.8007L54.9258 31.0331H56.9456L52.5045 18.7322H50.4411L46 31.0331H47.986L49.112 27.7083ZM53.3128 26.1742H49.5962L51.4294 20.7783H51.4806L53.3128 26.1742Z" fill="#EFF2F5"></path><path fill-rule="evenodd" clip-rule="evenodd" d="M62.7926 31.1269C65.0437 31.1269 66.5353 29.3363 66.5353 26.5494C66.5353 23.7702 65.0349 21.9709 62.7588 21.9709C61.5875 21.9331 60.4904 22.5423 59.9032 23.5564H59.8693V22.0647H58.0874V33.9999H59.9283V29.5578H59.9709C60.5331 30.5783 61.6291 31.1878 62.7926 31.1269ZM62.2755 23.54C63.7071 23.54 64.6455 24.7337 64.6455 26.5494C64.6455 28.3816 63.7071 29.5666 62.2755 29.5666C60.8689 29.5666 59.9229 28.3564 59.9229 26.5494C59.9229 24.7588 60.8689 23.54 62.2755 23.54Z" fill="#EFF2F5"></path><path fill-rule="evenodd" clip-rule="evenodd" d="M72.6632 31.1271C74.9143 31.1271 76.4059 29.3366 76.4059 26.5496C76.4059 23.7704 74.9056 21.9711 72.6294 21.9711C71.4581 21.9334 70.3609 22.5425 69.7737 23.5566H69.7399V22.065H67.958V34.0002H69.7989V29.5581H69.8415C70.4037 30.5786 71.4997 31.188 72.6632 31.1271ZM72.1475 23.5402C73.5792 23.5402 74.5175 24.7339 74.5175 26.5497H74.5176C74.5176 28.3818 73.5792 29.5668 72.1475 29.5668C70.741 29.5668 69.7949 28.3567 69.7949 26.5497C69.7949 24.7591 70.741 23.5402 72.1475 23.5402Z" fill="#EFF2F5"></path><path d="M82.9308 27.6058C83.0672 28.8256 84.2522 29.6265 85.8716 29.6265C87.4232 29.6265 88.5395 28.8256 88.5395 27.7257C88.5395 26.7709 87.8663 26.1992 86.2721 25.8074L84.6779 25.4234C82.4191 24.8778 81.3705 23.8214 81.3705 22.1073C81.3705 19.9849 83.2201 18.5271 85.8464 18.5271C88.4457 18.5271 90.2276 19.9849 90.2875 22.1073H88.4292C88.318 20.8797 87.3032 20.1387 85.8203 20.1387C84.3373 20.1387 83.3226 20.8884 83.3226 21.9796C83.3226 22.8492 83.9707 23.361 85.5562 23.7527L86.9115 24.0855C89.4353 24.6823 90.4839 25.6962 90.4839 27.4954C90.4839 29.7967 88.6508 31.2381 85.7352 31.2381C83.0072 31.2381 81.1654 29.8306 81.0464 27.6057L82.9308 27.6058Z" fill="#EFF2F5"></path><path d="M94.4587 19.9424V22.0648H96.1642V23.5226H94.4587V28.4667C94.4587 29.2348 94.8002 29.5927 95.5499 29.5927C95.7524 29.5892 95.9545 29.575 96.1555 29.5501V30.9992C95.8184 31.0622 95.4758 31.0907 95.133 31.0843C93.3173 31.0843 92.6092 30.4023 92.6092 28.663V23.5226H91.3052V22.0648H92.6091V19.9424H94.4587Z" fill="#EFF2F5"></path><path fill-rule="evenodd" clip-rule="evenodd" d="M101.406 21.9543C98.8143 21.9543 97.1523 23.7275 97.1523 26.5493C97.1523 29.3788 98.7978 31.1442 101.406 31.1442C104.015 31.1442 105.66 29.3788 105.66 26.5493C105.66 23.7275 104.006 21.9543 101.406 21.9543ZM101.403 23.4711C102.894 23.4711 103.781 24.6136 103.781 26.5492H103.781C103.781 28.4927 102.894 29.6264 101.403 29.6264C99.911 29.6264 99.0249 28.4927 99.0249 26.5492C99.0249 24.6223 99.911 23.4711 101.403 23.4711Z" fill="#EFF2F5"></path><path d="M107.177 22.0647H108.933V23.5911H108.975C109.22 22.6085 110.12 21.9322 111.132 21.9708C111.344 21.9701 111.556 21.9931 111.763 22.0395V23.7614C111.495 23.6795 111.216 23.642 110.936 23.6501C110.395 23.6282 109.871 23.8439 109.502 24.2406C109.133 24.6373 108.956 25.1753 109.018 25.7135V31.033H107.177L107.177 22.0647Z" fill="#EFF2F5"></path><path fill-rule="evenodd" clip-rule="evenodd" d="M116.388 31.1442C118.417 31.1442 120.002 30.0269 120.25 28.3989L118.502 28.3988C118.166 29.231 117.324 29.744 116.431 29.6603C115.761 29.6849 115.113 29.4206 114.651 28.9346C114.189 28.4486 113.959 27.7877 114.018 27.12V27.0088H120.352V26.3781C120.352 23.6588 118.792 21.9543 116.311 21.9543C113.788 21.9543 112.16 23.7788 112.16 26.5918C112.16 29.3962 113.779 31.1442 116.388 31.1442ZM118.511 25.7223L114.027 25.7223C114.025 25.1168 114.266 24.5358 114.695 24.1084C115.123 23.6809 115.705 23.4425 116.311 23.4461C116.912 23.4332 117.49 23.6715 117.908 24.1036C118.326 24.5357 118.544 25.1224 118.511 25.7223Z" fill="#EFF2F5"></path><path fill-rule="evenodd" clip-rule="evenodd" d="M47.2334 15.3836V9.47314H49.6092C50.7197 9.47314 51.3872 10.0381 51.3872 10.9474C51.3877 11.5632 50.9546 12.0943 50.3512 12.2175V12.2872C51.1062 12.3229 51.6959 12.9525 51.6823 13.7082C51.6823 14.7486 50.9248 15.3837 49.6624 15.3837L47.2334 15.3836ZM48.1519 11.9758H49.2411C50.0527 11.9758 50.4745 11.6769 50.4745 11.1159C50.4745 10.5708 50.0769 10.2515 49.3968 10.2515H48.1519V11.9758ZM50.7444 13.6429C50.7444 14.2693 50.3062 14.6054 49.4791 14.6054H48.1519V12.7007H49.4259C50.2897 12.7007 50.7444 13.0243 50.7444 13.6429Z" fill="#EFF2F5"></path><path fill-rule="evenodd" clip-rule="evenodd" d="M54.2855 12.7907C53.2243 12.8565 52.6265 13.3194 52.6265 14.1223C52.628 14.503 52.7904 14.8653 53.0737 15.1196C53.357 15.374 53.7346 15.4966 54.1133 15.4572C54.6534 15.4822 55.1653 15.2146 55.4531 14.7569H55.5227V15.3837H56.3701V12.3361C56.3701 11.3939 55.7394 10.8372 54.6211 10.8372C53.6093 10.8372 52.8886 11.3286 52.7987 12.0947H53.6509C53.7486 11.7794 54.0891 11.5989 54.5805 11.5989C55.1822 11.5989 55.4937 11.865 55.4937 12.3361V12.7211L54.2855 12.7907ZM55.4958 13.3683V13.7412C55.4765 14.0255 55.3427 14.2898 55.125 14.4736C54.9073 14.6574 54.6243 14.745 54.3408 14.7163C53.8619 14.7163 53.5137 14.4827 53.5137 14.0812C53.5137 13.688 53.7923 13.479 54.4065 13.4379L55.4958 13.3683Z" fill="#EFF2F5"></path><path fill-rule="evenodd" clip-rule="evenodd" d="M57.9576 9.05373C57.7459 9.15275 57.616 9.37091 57.6299 9.6042C57.6313 9.7519 57.6929 9.89264 57.8004 9.99388C57.908 10.0951 58.0522 10.1481 58.1997 10.1406C58.4334 10.1404 58.6433 9.99762 58.7294 9.78034C58.8155 9.56306 58.7603 9.31526 58.5901 9.15507C58.4199 8.99487 58.1693 8.95471 57.9576 9.05373ZM58.6381 10.9232H57.7607L57.7607 15.3837H58.6381V10.9232Z" fill="#EFF2F5"></path><path d="M61.663 13.8027L60.688 15.3838H59.7216L61.2006 13.1637L59.709 10.9233H60.7373L61.6959 12.4963H61.7656L62.7155 10.9233H63.6945L62.2241 13.127L63.711 15.3838H62.7L61.7288 13.8027H61.663Z" fill="#EFF2F5"></path><path fill-rule="evenodd" clip-rule="evenodd" d="M66.1434 12.7907C65.0822 12.8565 64.4844 13.3194 64.4844 14.1223C64.4859 14.503 64.6483 14.8653 64.9316 15.1196C65.2149 15.374 65.5925 15.4966 65.9712 15.4572C66.5114 15.4822 67.0232 15.2146 67.311 14.7569H67.3806V15.3837H68.228V12.3361C68.228 11.3939 67.5973 10.8372 66.4791 10.8372C65.4672 10.8372 64.7465 11.3286 64.6566 12.0947H65.5088C65.6065 11.7794 65.947 11.5989 66.4384 11.5989C67.0401 11.5989 67.3516 11.865 67.3516 12.3361V12.7211L66.1434 12.7907ZM67.3498 13.3683V13.7412C67.3305 14.0255 67.1967 14.2898 66.979 14.4736C66.7613 14.6574 66.4783 14.745 66.1948 14.7163C65.7159 14.7163 65.3677 14.4827 65.3677 14.0812C65.3677 13.688 65.6463 13.479 66.2605 13.4379L67.3498 13.3683Z" fill="#EFF2F5"></path><path d="M69.6089 10.9232H70.4563V11.6071H70.5221C70.7167 11.12 71.2031 10.8139 71.7264 10.8492C71.8583 10.8474 71.9899 10.8597 72.1192 10.8859V11.7547C71.9576 11.7202 71.793 11.7023 71.6278 11.7015C71.3342 11.6751 71.0431 11.774 70.8263 11.9736C70.6094 12.1733 70.487 12.4553 70.4892 12.7501V15.3837H69.6089L69.6089 10.9232Z" fill="#EFF2F5"></path><path d="M75.5098 10.9233H76.3577V11.6319H76.4235C76.6522 11.1102 77.1868 10.791 77.7546 10.8372C78.1942 10.8041 78.625 10.9728 78.9253 11.2955C79.2257 11.6183 79.363 12.0601 79.2984 12.4962V15.3837H78.4182V12.7172C78.4182 12.0004 78.1067 11.644 77.4556 11.644C77.1574 11.6301 76.8681 11.7471 76.6633 11.9644C76.4586 12.1816 76.359 12.4775 76.3906 12.7743V15.3837H75.5098L75.5098 10.9233Z" fill="#EFF2F5"></path><path fill-rule="evenodd" clip-rule="evenodd" d="M82.0662 12.7907C81.0051 12.8565 80.4072 13.3194 80.4072 14.1223C80.4087 14.503 80.5712 14.8653 80.8545 15.1196C81.1377 15.374 81.5154 15.4966 81.8941 15.4572C82.4342 15.4822 82.946 15.2146 83.2338 14.7569H83.3035V15.3837H84.1509V12.3361C84.1509 11.3939 83.5202 10.8372 82.4019 10.8372C81.3901 10.8372 80.6694 11.3286 80.5794 12.0947H81.4317C81.5294 11.7794 81.8699 11.5989 82.3613 11.5989C82.963 11.5989 83.2745 11.865 83.2745 12.3361V12.7211L82.0662 12.7907ZM83.2736 13.3683V13.7412H83.2736C83.2544 14.0255 83.1206 14.2898 82.9028 14.4736C82.6851 14.6574 82.4021 14.745 82.1186 14.7163C81.6397 14.7163 81.2915 14.4827 81.2915 14.0812C81.2915 13.688 81.5701 13.479 82.1844 13.4379L83.2736 13.3683Z" fill="#EFF2F5"></path></svg> 