<svg width="100" height="100" viewBox="0 0 100 100" fill="none" xmlns="http://www.w3.org/2000/svg">
<g clip-path="url(#clip0_14_152)">
<rect width="100" height="100" fill="white"/>
<rect width="100" height="100" fill="#4C565D"/>
<path d="M35.4365 84.3976V111.518H26.5567V84.3976H13V77H48.9932V84.3976H35.4298H35.4365Z" fill="white"/>
<path d="M84.0829 103.518L80.5838 96.1201H64.2115L60.7124 103.518H51L67.8596 69H76.9831L93.7953 103.518H84.0829ZM72.4416 77.9746L67.4129 88.8714H77.3756L72.4416 77.9746Z" fill="white"/>
<path d="M46.6616 26.5178L38.6751 14.6802H27.6294V26.5178H19V-8H42.6684C49.6734 -8 55.3452 -4.10152 55.3452 3.34349C55.3452 8.17597 52.4822 11.9729 48.0491 13.6988L56.78 26.5178H46.6684H46.6616ZM42.3706 -0.602368H27.6294V7.28934H42.5195C44.8342 7.28934 46.709 5.71235 46.709 3.34349C46.709 0.778343 44.7868 -0.602368 42.3706 -0.602368Z" fill="white"/>
<path d="M49.5097 66.1134C39.3127 66.1134 30.9697 60.9937 30.9697 49.9545C30.9697 38.9154 39.4036 33.8866 49.5097 33.8866C59.6157 33.8866 68.1344 38.9215 68.1344 49.9545C68.1344 60.9876 59.7066 66.1134 49.5097 66.1134ZM49.5097 40.5937C43.3297 40.5937 38.7856 43.2838 38.7856 49.9545C38.7856 56.6253 43.3297 59.4002 49.5097 59.4002C55.6896 59.4002 60.2822 56.6192 60.2822 49.9545C60.2822 43.2899 55.6472 40.5937 49.5097 40.5937Z" fill="white"/>
<path d="M25.9168 58.3582C25.4684 58.3582 25.014 58.1825 24.6687 57.8432C22.5723 55.7529 21.4211 52.9658 21.4211 50.0031C21.4211 47.0403 22.5723 44.2533 24.6687 42.163C25.3594 41.4723 26.4742 41.4723 27.1588 42.163C27.8435 42.8537 27.8435 43.9685 27.1588 44.6532C25.729 46.083 24.9413 47.9794 24.9413 50.0031C24.9413 52.0267 25.729 53.9231 27.1588 55.353C27.8435 56.0437 27.8435 57.1585 27.1588 57.8432C26.8135 58.1885 26.3651 58.3582 25.9107 58.3582H25.9168Z" fill="#91C34A"/>
<path d="M20.6274 61.8844C20.173 61.8844 19.7247 61.7147 19.3793 61.3694C16.3439 58.3339 14.6716 54.2987 14.6716 50.003C14.6716 45.7074 16.3439 41.6722 19.3793 38.6367C20.07 37.946 21.1848 37.946 21.8695 38.6367C22.5602 39.3274 22.5602 40.4423 21.8695 41.133C19.5005 43.502 18.1918 46.6525 18.1918 50.0091C18.1918 53.3657 19.5005 56.5102 21.8695 58.8792C22.5602 59.5699 22.5602 60.6847 21.8695 61.3754C21.5241 61.7208 21.0758 61.8904 20.6214 61.8904L20.6274 61.8844Z" fill="#91C34A"/>
<path d="M15.3381 65.4106C14.8837 65.4106 14.4353 65.2348 14.09 64.8956C10.1093 60.9149 7.92212 55.6316 7.92212 50.003C7.92212 44.3744 10.1154 39.0851 14.09 35.1105C14.7807 34.4198 15.8955 34.4198 16.5801 35.1105C17.2708 35.8012 17.2708 36.916 16.5801 37.6067C13.266 40.9209 11.4423 45.3196 11.4423 50.0091C11.4423 54.6986 13.266 59.0973 16.5801 62.4114C17.2708 63.1022 17.2708 64.217 16.5801 64.9077C16.2348 65.253 15.7864 65.4227 15.332 65.4227L15.3381 65.4106Z" fill="#91C34A"/>
<path d="M74.0054 58.3581C73.557 58.3581 73.1026 58.1824 72.7573 57.8431C72.0666 57.1524 72.0666 56.0376 72.7573 55.3529C74.1872 53.9231 74.9748 52.0267 74.9748 50.003C74.9748 47.9794 74.1872 46.083 72.7573 44.6531C72.0666 43.9624 72.0666 42.8476 72.7573 42.1629C73.448 41.4722 74.5628 41.4722 75.2535 42.1629C77.3499 44.2593 78.501 47.0403 78.501 50.003C78.501 52.9658 77.3499 55.7528 75.2535 57.8431C74.9082 58.1885 74.4537 58.3581 74.0054 58.3581Z" fill="#058394"/>
<path d="M79.2886 61.8843C78.8342 61.8843 78.3858 61.7147 78.0405 61.3693C77.3498 60.6786 77.3498 59.5638 78.0405 58.8731C82.936 53.9776 82.936 46.0224 78.0405 41.1269C77.3498 40.4362 77.3498 39.3213 78.0405 38.6306C78.7312 37.9399 79.846 37.9399 80.5307 38.6306C86.8015 44.9015 86.8015 55.0985 80.5307 61.3633C80.1853 61.7086 79.737 61.8783 79.2825 61.8783L79.2886 61.8843Z" fill="#058394"/>
<path d="M84.5839 65.4105C84.1295 65.4105 83.6811 65.2348 83.3357 64.8955C82.6511 64.2048 82.6511 63.09 83.3357 62.3993C86.6499 59.0851 88.4736 54.6864 88.4736 49.9969C88.4736 45.3074 86.6499 40.9087 83.3357 37.5946C82.6511 36.9039 82.6511 35.7891 83.3357 35.0983C84.0204 34.4076 85.1413 34.4076 85.8259 35.0983C89.8005 39.079 91.9998 44.3683 91.9998 49.9909C91.9998 55.6134 89.8065 60.9088 85.8259 64.8834C85.4806 65.2288 85.0322 65.3984 84.5778 65.3984L84.5839 65.4105Z" fill="#058394"/>
</g>
<defs>
<clipPath id="clip0_14_152">
<rect width="100" height="100" fill="white"/>
</clipPath>
</defs>
</svg>
