<?xml version="1.0" encoding="UTF-8"?> <svg xmlns="http://www.w3.org/2000/svg" width="136" height="42" viewBox="0 0 136 42" fill="none"><path fill-rule="evenodd" clip-rule="evenodd" d="M103.563 30.4394H105.193V19.5189H103.563V30.4394ZM118.245 23.4525L116.377 28.1872H116.321L114.382 23.4525H112.627L115.535 30.0698L113.876 33.751H115.576L120.058 23.4525H118.245ZM108.999 29.1988C108.467 29.1988 107.721 28.9315 107.721 28.272C107.721 27.429 108.649 27.1058 109.45 27.1058C110.166 27.1058 110.504 27.2604 110.939 27.4709C110.812 28.4825 109.941 29.1988 108.999 29.1988ZM109.198 23.2141C108.017 23.2141 106.795 23.7338 106.289 24.8861L107.736 25.4897C108.045 24.8861 108.622 24.6886 109.225 24.6886C110.068 24.6886 110.925 25.1944 110.939 26.0933V26.206C110.644 26.0374 110.012 25.785 109.239 25.785C107.679 25.785 106.092 26.6419 106.092 28.2432C106.092 29.7047 107.371 30.6464 108.804 30.6464C109.899 30.6464 110.504 30.1546 110.883 29.578H110.939V30.421H112.514V26.2349C112.514 24.2955 111.065 23.2141 109.198 23.2141ZM99.1237 24.7821H96.8052V21.0389H99.1237C100.342 21.0389 101.034 22.0478 101.034 22.9101C101.034 23.7565 100.342 24.7821 99.1237 24.7821ZM99.0815 19.5189H95.1758V30.4394H96.805V26.3021H99.0815C100.888 26.3021 102.664 24.9944 102.664 22.9101C102.664 20.8266 100.888 19.5189 99.0815 19.5189ZM77.7836 29.2015C76.6576 29.2015 75.715 28.258 75.715 26.9634C75.715 25.6539 76.6576 24.6974 77.7836 24.6974C78.8948 24.6974 79.7675 25.6539 79.7675 26.9634C79.7675 28.258 78.8948 29.2015 77.7836 29.2015ZM79.6547 24.064H79.5988C79.2327 23.6281 78.5286 23.2332 77.6428 23.2332C75.7848 23.2332 74.0822 24.8668 74.0822 26.9634C74.0822 29.046 75.7848 30.6647 77.6428 30.6647C78.5286 30.6647 79.2327 30.2707 79.5988 29.8208H79.6547V30.3546C79.6547 31.7768 78.8947 32.5359 77.6708 32.5359C76.6714 32.5359 76.0521 31.8187 75.7987 31.2133L74.3774 31.8047C74.7854 32.7892 75.8686 34 77.6708 34C79.5848 34 81.2035 32.874 81.2035 30.1301V23.4586H79.6547V24.064ZM82.3299 30.4394H83.9617V19.5189H82.3299V30.4394ZM86.3678 26.8368C86.3259 25.4006 87.4799 24.6694 88.3107 24.6694C88.958 24.6694 89.5066 24.9935 89.69 25.4574L86.3678 26.8368ZM91.4347 25.598C91.1246 24.7681 90.182 23.2332 88.254 23.2332C86.34 23.2332 84.7493 24.7402 84.7493 26.9494C84.7493 29.032 86.3261 30.6647 88.4366 30.6647C90.1392 30.6647 91.1246 29.6234 91.5334 29.018L90.2667 28.1733C89.8439 28.7926 89.2674 29.2015 88.4366 29.2015C87.6067 29.2015 87.0153 28.8206 86.6362 28.0746L91.6033 26.0199L91.4347 25.598ZM51.8547 24.3742V25.9501H55.6267C55.514 26.8368 55.2179 27.4841 54.768 27.934C54.2185 28.4834 53.3598 29.0888 51.8547 29.0888C49.5318 29.0888 47.7166 27.2168 47.7166 24.8948C47.7166 22.5729 49.5318 20.7008 51.8547 20.7008C53.1074 20.7008 54.022 21.1935 54.6973 21.8268L55.8093 20.7148C54.8659 19.8141 53.614 19.124 51.8547 19.124C48.674 19.124 46 21.7142 46 24.8948C46 28.0746 48.674 30.6647 51.8547 30.6647C53.5712 30.6647 54.8659 30.1013 55.8792 29.046C56.9205 28.0047 57.2446 26.5415 57.2446 25.3587C57.2446 24.9935 57.2166 24.6555 57.1598 24.3742H51.8547ZM61.5328 29.2015C60.4076 29.2015 59.4362 28.272 59.4362 26.9494C59.4362 25.612 60.4076 24.6974 61.5328 24.6974C62.6588 24.6974 63.6302 25.612 63.6302 26.9494C63.6302 28.272 62.6588 29.2015 61.5328 29.2015ZM61.5327 23.2332C59.4781 23.2332 57.8034 24.7961 57.8034 26.9494C57.8034 29.0888 59.4781 30.6647 61.5327 30.6647C63.5882 30.6647 65.2628 29.0888 65.2628 26.9494C65.2628 24.7961 63.5882 23.2332 61.5327 23.2332ZM69.6688 29.2015C68.5428 29.2015 67.5714 28.272 67.5714 26.9494C67.5714 25.612 68.5428 24.6974 69.6688 24.6974C70.7948 24.6974 71.7654 25.612 71.7654 26.9494C71.7654 28.272 70.7948 29.2015 69.6688 29.2015ZM69.6678 23.2332C67.6132 23.2332 65.9385 24.7961 65.9385 26.9494C65.9385 29.0888 67.6132 30.6647 69.6678 30.6647C71.7224 30.6647 73.3971 29.0888 73.3971 26.9494C73.3971 24.7961 71.7224 23.2332 69.6678 23.2332Z" fill="#EFF2F5"></path><path fill-rule="evenodd" clip-rule="evenodd" d="M46.9313 14.9446H47.8608C48.4662 14.9446 48.9458 14.7716 49.2996 14.4248C49.6534 14.078 49.8298 13.5923 49.8298 12.9677C49.8298 12.3483 49.6534 11.8644 49.2996 11.5149C48.9458 11.1664 48.4662 10.9917 47.8608 10.9917H46.9313V14.9446ZM46.2576 15.5883V10.3469H47.8606C48.666 10.3469 49.3107 10.5898 49.7938 11.0755C50.2769 11.5612 50.518 12.1919 50.518 12.9676C50.518 13.7434 50.2769 14.3749 49.7938 14.8598C49.3107 15.3455 48.666 15.5883 47.8606 15.5883H46.2576Z" fill="#EFF2F5"></path><path fill-rule="evenodd" clip-rule="evenodd" d="M51.4643 15.5886H52.1378V10.3472H51.4643V15.5886Z" fill="#EFF2F5"></path><path fill-rule="evenodd" clip-rule="evenodd" d="M54.8152 15.7055C54.4344 15.7055 54.0631 15.5815 53.6997 15.3325C53.3354 15.0835 53.0969 14.735 52.9851 14.286L53.6001 14.037C53.6735 14.3244 53.8229 14.5673 54.05 14.7647C54.278 14.9621 54.5322 15.0617 54.8152 15.0617C55.1079 15.0617 55.3586 14.9848 55.5656 14.8311C55.7735 14.6773 55.8766 14.4685 55.8766 14.2047C55.8766 13.9121 55.7735 13.6867 55.5656 13.5277C55.3586 13.3696 55.0301 13.222 54.5811 13.0848C54.1173 12.9389 53.7661 12.7494 53.5267 12.5179C53.2882 12.2855 53.1677 11.9893 53.1677 11.6286C53.1677 11.2521 53.3171 10.9253 53.615 10.6475C53.9128 10.3698 54.3007 10.23 54.7785 10.23C55.2232 10.23 55.584 10.3409 55.8618 10.5628C56.1404 10.7856 56.3213 11.0284 56.4034 11.2914L55.7893 11.5473C55.7447 11.3822 55.6364 11.2285 55.4634 11.0861C55.2905 10.9454 55.0668 10.8747 54.7934 10.8747C54.5348 10.8747 54.3138 10.9463 54.1312 11.0904C53.9478 11.2346 53.8561 11.4137 53.8561 11.6286C53.8561 11.8234 53.9408 11.9885 54.1085 12.1221C54.278 12.2567 54.5252 12.3772 54.8519 12.4847C55.1105 12.5677 55.3263 12.648 55.5001 12.7266C55.6731 12.8044 55.8495 12.9083 56.0269 13.0376C56.2051 13.1669 56.3387 13.3277 56.4296 13.5207C56.5196 13.7138 56.565 13.9365 56.565 14.1907C56.565 14.4441 56.5126 14.6712 56.4078 14.8713C56.3029 15.0713 56.1632 15.2303 55.9902 15.3473C55.8163 15.4644 55.6311 15.5535 55.4302 15.6147C55.2302 15.6749 55.0249 15.7055 54.8152 15.7055Z" fill="#EFF2F5"></path><path fill-rule="evenodd" clip-rule="evenodd" d="M58.2068 12.8211H59.3346C59.6176 12.8211 59.8448 12.7268 60.0151 12.5363C60.1863 12.3459 60.2711 12.1363 60.2711 11.9065C60.2711 11.6768 60.1863 11.4671 60.0151 11.2767C59.8448 11.0862 59.6176 10.991 59.3346 10.991H58.2068V12.8211ZM58.2055 15.5886H57.532V10.3472H59.3184C59.7622 10.3472 60.1474 10.4948 60.4715 10.7901C60.7965 11.0853 60.9581 11.4575 60.9581 11.9065C60.9581 12.3555 60.7965 12.7276 60.4715 13.022C60.1474 13.3182 59.7622 13.4658 59.3184 13.4658H58.2055V15.5886Z" fill="#EFF2F5"></path><path fill-rule="evenodd" clip-rule="evenodd" d="M62.7465 14.4726C63.1343 14.8657 63.6087 15.0614 64.1704 15.0614C64.7312 15.0614 65.2064 14.8657 65.5943 14.4726C65.9822 14.0795 66.177 13.5781 66.177 12.9683C66.177 12.3586 65.9822 11.8563 65.5943 11.464C65.2064 11.0709 64.7312 10.8744 64.1704 10.8744C63.6087 10.8744 63.1343 11.0709 62.7465 11.464C62.3595 11.8563 62.1647 12.3586 62.1647 12.9683C62.1647 13.5781 62.3595 14.0795 62.7465 14.4726ZM66.0919 14.9111C65.5765 15.4413 64.9361 15.706 64.17 15.706C63.4039 15.706 62.7636 15.4413 62.249 14.9111C61.7336 14.3817 61.4768 13.7344 61.4768 12.9682C61.4768 12.2021 61.7336 11.5539 62.249 11.0245C62.7636 10.4952 63.4039 10.2305 64.17 10.2305C64.9318 10.2305 65.5704 10.496 66.0884 11.028C66.6055 11.56 66.8641 12.2065 66.8641 12.9682C66.8641 13.7344 66.6064 14.3817 66.0919 14.9111Z" fill="#EFF2F5"></path><path fill-rule="evenodd" clip-rule="evenodd" d="M67.8101 15.5886V10.3472H68.6295L71.1768 14.4241H71.2065L71.1768 13.4143V10.3472H71.8512V15.5886H71.148L68.4836 11.3133H68.4539L68.4836 12.3241V15.5886H67.8101Z" fill="#EFF2F5"></path><path fill-rule="evenodd" clip-rule="evenodd" d="M73.6829 9.93734H73.0968L73.4785 9H74.2106L73.6829 9.93734ZM73.0518 15.5884H73.7253V10.347H73.0518V15.5884Z" fill="#EFF2F5"></path><path fill-rule="evenodd" clip-rule="evenodd" d="M76.2196 15.5886L74.3755 10.3472H75.1215L76.5568 14.6006H76.5856L78.0794 10.3472H78.8254L76.9228 15.5886H76.2196Z" fill="#EFF2F5"></path><path fill-rule="evenodd" clip-rule="evenodd" d="M82.648 10.9912H80.2614V12.6528H82.413V13.2826H80.2614V14.9441H82.648V15.5888H79.5879V10.3474H82.648V10.9912Z" fill="#EFF2F5"></path><path fill-rule="evenodd" clip-rule="evenodd" d="M83.7034 15.5886V10.3472H84.3769V14.9448H86.6455V15.5886H83.7034Z" fill="#EFF2F5"></path><path fill-rule="evenodd" clip-rule="evenodd" d="M89.252 15.5886V10.3472H90.0714L92.6187 14.4241H92.6484L92.6187 13.4143V10.3472H93.2931V15.5886H92.5899L89.9255 11.3133H89.8958L89.9255 12.3241V15.5886H89.252Z" fill="#EFF2F5"></path><path fill-rule="evenodd" clip-rule="evenodd" d="M95.4319 14.4726C95.8198 14.8657 96.2942 15.0614 96.8559 15.0614C97.4167 15.0614 97.8919 14.8657 98.2798 14.4726C98.6676 14.0795 98.8625 13.5781 98.8625 12.9683C98.8625 12.3586 98.6676 11.8563 98.2798 11.464C97.8919 11.0709 97.4167 10.8744 96.8559 10.8744C96.2942 10.8744 95.8198 11.0709 95.4319 11.464C95.045 11.8563 94.8502 12.3586 94.8502 12.9683C94.8502 13.5781 95.045 14.0795 95.4319 14.4726ZM98.7774 14.9111C98.262 15.4413 97.6217 15.706 96.8556 15.706C96.0894 15.706 95.4491 15.4413 94.9346 14.9111C94.4192 14.3817 94.1624 13.7344 94.1624 12.9682C94.1624 12.2021 94.4192 11.5539 94.9346 11.0245C95.4491 10.4952 96.0894 10.2305 96.8556 10.2305C97.6173 10.2305 98.2559 10.496 98.7739 11.028C99.2911 11.56 99.5497 12.2065 99.5497 12.9682C99.5497 13.7344 99.292 14.3817 98.7774 14.9111Z" fill="#EFF2F5"></path><path fill-rule="evenodd" clip-rule="evenodd" d="M17.6758 10.6925V30.4411C17.6758 31.0021 17.8221 31.4347 18.0696 31.7125L18.1326 31.7767L28.6708 20.5668L18.1402 9.36499C17.8544 9.63827 17.6758 10.0853 17.6758 10.6925Z" fill="#EFF2F5"></path><path fill-rule="evenodd" clip-rule="evenodd" d="M30.6785 20.5665L34.1923 24.3047L38.4326 21.7411C38.9719 21.4153 39.2739 20.9955 39.3241 20.5683V20.5656C39.2739 20.1376 38.9719 19.7177 38.4326 19.392L34.1915 16.8284L30.6785 20.5665Z" fill="#EFF2F5"></path><path fill-rule="evenodd" clip-rule="evenodd" d="M19.2131 32.8944C19.6095 33.2148 20.1896 33.2293 20.8404 32.8356L33.107 25.4208L29.6739 21.7668L19.2131 32.8944Z" fill="#EFF2F5"></path><path fill-rule="evenodd" clip-rule="evenodd" d="M19.8783 8C19.624 8.00543 19.3994 8.08778 19.2131 8.23708L29.6748 19.3665L33.1087 15.7125L20.8412 8.29771C20.5154 8.10044 20.2075 8.00543 19.931 8H19.8783Z" fill="#EFF2F5"></path><path d="M124.329 1.00013H11.6769C11.2663 1.00013 10.8606 1.00013 10.4511 1.00213C10.1082 1.00413 9.76815 1.00994 9.42203 1.01483C8.6701 1.02273 7.91993 1.08181 7.17806 1.19154C6.43722 1.30366 5.7196 1.51505 5.04945 1.81854C4.38012 2.1246 3.76854 2.5223 3.23688 2.9972C2.70244 3.47077 2.25694 4.01815 1.91751 4.61829C1.57715 5.21724 1.34114 5.85907 1.21763 6.52161C1.09296 7.18331 1.02587 7.85265 1.01696 8.52361C1.00657 8.83021 1.00548 9.13783 1 9.44447V32.5587C1.00548 32.8692 1.00657 33.17 1.01696 33.4806C1.02587 34.1516 1.09296 34.8209 1.21763 35.4825C1.3408 36.1455 1.57682 36.7877 1.91751 37.3868C2.25678 37.985 2.70235 38.5302 3.23688 39.0011C3.76652 39.4781 4.3785 39.8761 5.04945 40.1798C5.71959 40.4841 6.43714 40.6968 7.17806 40.8106C7.92006 40.9195 8.67014 40.9786 9.42203 40.9874C9.76815 40.9942 10.1082 40.9981 10.4511 40.9981C10.8606 41.0001 11.2663 41.0001 11.6769 41.0001H124.329C124.732 41.0001 125.14 41.0001 125.543 40.9981C125.884 40.9981 126.234 40.9942 126.575 40.9874C127.326 40.9791 128.074 40.92 128.815 40.8106C129.558 40.696 130.278 40.4834 130.952 40.1798C131.622 39.8759 132.233 39.478 132.763 39.0011C133.296 38.5284 133.742 37.9836 134.086 37.3868C134.424 36.7872 134.658 36.1451 134.779 35.4825C134.904 34.8208 134.973 34.1516 134.987 33.4806C134.991 33.17 134.991 32.8692 134.991 32.5587C135 32.1954 135 31.8341 135 31.4649V10.5363C135 10.17 135 9.80677 134.991 9.44447C134.991 9.13783 134.991 8.83021 134.987 8.52357C134.973 7.85255 134.904 7.18337 134.779 6.52157C134.657 5.85941 134.424 5.21763 134.086 4.61825C133.395 3.41533 132.298 2.43616 130.952 1.81845C130.278 1.5157 129.558 1.30437 128.815 1.19145C128.075 1.08123 127.326 1.02214 126.575 1.01469C126.234 1.00981 125.884 1.00395 125.543 1.002C125.14 1 124.732 1 124.329 1V1.00013Z" stroke="white" stroke-width="1.5"></path></svg> 